<?xml version="1.0" encoding="utf-8"?>
<!-- Generator: Adobe Illustrator 15.0.2, SVG Export Plug-In . SVG Version: 6.00 Build 0)  -->
<!DOCTYPE svg PUBLIC "-//W3C//DTD SVG 1.1//EN" "http://www.w3.org/Graphics/SVG/1.1/DTD/svg11.dtd">
<svg version="1.1" id="Ebene_1" xmlns="http://www.w3.org/2000/svg" xmlns:xlink="http://www.w3.org/1999/xlink" x="0px" y="0px"
	 width="45.429px" height="56.689px" viewBox="0 0 45.429 56.689" enable-background="new 0 0 45.429 56.689" xml:space="preserve">
<g>
	<defs>
		<rect id="SVGID_1_" x="-2.084" y="-1.655" width="49.605" height="70.148"/>
	</defs>
	<clipPath id="SVGID_2_">
		<use xlink:href="#SVGID_1_"  overflow="visible"/>
	</clipPath>
	<g clip-path="url(#SVGID_2_)">
		<g>
			<path fill="none" stroke="#1A171B" stroke-width="8" d="M22.293,56.029"/>
		</g>
	</g>
</g>
<g>
	<g>
		<path fill="#F6BA9E" d="M4.563,10.392l2.021,1.441l0.307-1.218L9.5,12.663c0,0-0.181,0.162-0.161,0.53
			c0.017,0.369,0.184,0.742,0.184,0.742l-0.015,2.954l-4.428-2.416l0.748-1.561l-1.854-1.26L4.563,10.392L4.563,10.392z"/>
	</g>
</g>
<g>
	<defs>
		<rect id="SVGID_3_" x="-2.084" y="-1.655" width="49.605" height="70.148"/>
	</defs>
	<clipPath id="SVGID_4_">
		<use xlink:href="#SVGID_3_"  overflow="visible"/>
	</clipPath>
	<g clip-path="url(#SVGID_4_)">
		<g>
			<path fill="#B3101D" d="M18.91,44.136l1.818,0.035l-0.004,2.307l-4.941,3.26c0,0-0.209-0.652,0.521-1.998
				c0.471-0.867,1.757-2.082,1.901-2.217c0.35-0.316,0.515-1.25,0.676-1.334C19.04,44.105,18.91,44.136,18.91,44.136L18.91,44.136z"
				/>
		</g>
	</g>
</g>
<g>
	<g>
		<path fill="#B3101D" d="M26.453,44.138l-1.819,0.033l0.005,2.307l4.94,3.264c0,0,0.21-0.656-0.523-2.002
			c-0.467-0.865-1.755-2.082-1.9-2.217c-0.349-0.316-0.513-1.25-0.674-1.334C26.322,44.107,26.453,44.138,26.453,44.138
			L26.453,44.138z"/>
	</g>
</g>
<g>
	<defs>
		<rect id="SVGID_5_" x="-2.084" y="-1.655" width="49.605" height="70.148"/>
	</defs>
	<clipPath id="SVGID_6_">
		<use xlink:href="#SVGID_5_"  overflow="visible"/>
	</clipPath>
	<g clip-path="url(#SVGID_6_)">
		<g>
			<polygon fill="#B3101D" points="39.168,15.808 36.995,11.422 39.962,9.869 42.146,14.24 39.168,15.808 			"/>
		</g>
	</g>
</g>
<g>
	<g>
		<path fill="#F6BA9E" d="M39.904,12.258l-1.915,1.164l1.128,2.354l-2.936,1.501v-2.769c0,0,0.343-0.187,0.343-0.465
			s-0.31-0.692-0.128-0.945c0.18-0.253,2.41-1.582,2.835-1.582c0.329,0,0.551,0.033,0.603,0.271
			C39.883,12.025,39.904,12.258,39.904,12.258L39.904,12.258z"/>
	</g>
</g>
<g>
	<defs>
		<rect id="SVGID_7_" x="-2.084" y="-1.655" width="49.605" height="70.148"/>
	</defs>
	<clipPath id="SVGID_8_">
		<use xlink:href="#SVGID_7_"  overflow="visible"/>
	</clipPath>
	<g clip-path="url(#SVGID_8_)">
		<g>
			<path fill="#FFCB00" d="M19.182,6.165c0.349-0.178,1.599-0.299,1.599-0.299s0.845,0.224,1.194,0.511
				c0.351,0.286,0.911,0.646,1.063,1.201c0.153,0.554,0.168,6.457,0.168,6.457l-1.788,0.542l-0.641-0.975l0.052-0.216l0.433-0.807
				l0.713-1.511L21.536,7.4L19.182,6.165L19.182,6.165z"/>
		</g>
	</g>
</g>
<g>
	<g>
		<path fill="#F6BA9E" d="M22.387,14.196l-0.241,0.061c0,0-0.86-1.536-0.963-1.57c-0.101-0.034-1.326,0.068-1.4,0.068
			c-0.075,0-0.912,0.002-1.022-0.068c-0.108-0.069-0.201-1.586-0.201-1.586s-0.453,0.012-0.526-0.078
			c-0.072-0.09,0.165-1.104,0.146-1.391c-0.017-0.286,0.097-1.947,0.118-2.192c0.063-0.674,0.558-1.212,1.075-1.347
			c0.518-0.135,2.755,0.583,2.979,1.977C22.579,9.471,22.387,14.196,22.387,14.196L22.387,14.196z"/>
	</g>
</g>
<g>
	<defs>
		<rect id="SVGID_9_" x="-2.084" y="-1.655" width="49.605" height="70.148"/>
	</defs>
	<clipPath id="SVGID_10_">
		<use xlink:href="#SVGID_9_"  overflow="visible"/>
	</clipPath>
	<g clip-path="url(#SVGID_10_)">
		<g>
			<path fill="#1A171B" d="M20.76,5.865c0,0,4.486,0.009,6.126,0.763c2.343,1.077,3.258,3.219,3.555,3.971
				c0.541,1.386,0.412,1.639,0.412,1.639s-2.43-0.146-3.601-0.015c-0.8,0.089-1.5,0.266-1.403,1.033
				c0.094,0.768,2.287,2.287,4.236,2.287c1.947,0,4.133-0.388,4.512-0.53c0.376-0.142,0.877-0.251,0.877-0.251v28.983
				c0,0-0.973-0.139-1.138-0.199c-0.842-0.305-1.957-0.576-2.641-1.664c-0.688-1.086-0.414-8.1-0.355-9.639
				c0.06-1.58-0.028-6.644-0.164-7.324c-0.285-1.417-0.766-2.347-1.83-3.056c-1.062-0.709-0.929-0.517-0.929-0.517l0.018,21.937
				H17.343l-0.015-21.583c0,0-1.375,0.489-1.903,1.135c-0.133,0.163-0.664,0.667-0.786,1.728
				c-0.134,1.177-0.094,15.178-0.094,15.178s0.023,0.469-0.272,1.182c-0.295,0.709-1.595,2.48-3.131,2.48
				c-1.532,0-0.942,0.059-0.942,0.059l-0.045-28.938c0,0,2.722,0.992,4.444,1.017c2.521,0.041,3.491-0.46,3.925-0.616
				c0.849-0.304,2.314-1.557,2.314-1.557l0.605,1.038l1.598-0.442c0,0-0.046-2.26,0-3.205c0.049-0.944,0.032-2.791-0.116-3.144
				c-0.228-0.544-0.561-0.902-1.063-1.226C21.411,6.099,20.76,5.865,20.76,5.865L20.76,5.865z"/>
		</g>
	</g>
</g>
<g>
	<g>
		<path fill="#FFCB00" d="M23.215,42.874H22.38V28.15h-4.479v-0.831h4.479V19.14c-3.799-0.194-5.378-2.948-5.443-3.069l0.729-0.405
			c0.057,0.106,1.483,2.592,5.016,2.65c3.224,0.053,4.881-1.717,5.18-2.583l0.789,0.272c-0.409,1.182-2.232,3-5.435,3.137v8.176
			h4.621v0.831h-4.621V42.874z"/>
	</g>
</g>
<g>
	<defs>
		<rect id="SVGID_11_" x="-2.084" y="-1.655" width="49.605" height="70.148"/>
	</defs>
	<clipPath id="SVGID_12_">
		<use xlink:href="#SVGID_11_"  overflow="visible"/>
	</clipPath>
	<g clip-path="url(#SVGID_12_)">
		<g>
			<path fill="#1A171B" d="M19.398,9.286c0,0-0.034-0.288,0.214-0.465c0.195-0.14,0.386-0.201,0.586-0.136
				c0.265,0.084,0.336,0.155,0.544,0.334c0.205,0.179,0.188,0.199,0.188,0.199s-0.1,0.017-0.335,0.193
				c-0.232,0.178-0.422,0.169-0.529,0.151c-0.11-0.019-0.11-0.023-0.38-0.135C19.503,9.353,19.398,9.286,19.398,9.286L19.398,9.286z
				"/>
		</g>
	</g>
</g>
<g>
	<g>
		<path fill="#1A171B" d="M19.095,6.959c-0.02,0.055-0.022,0.081-0.034,0.25c-0.013,0.174,0.004,0.251,0.012,0.273
			c0.051,0.145,0.303,0.361,0.347,0.394c0.044,0.032,0.077,0.052,0.104-0.077c0.025-0.128,0.073-0.324,0.016-0.445
			c-0.057-0.121-0.298-0.342-0.339-0.363C19.156,6.97,19.095,6.959,19.095,6.959L19.095,6.959z"/>
	</g>
</g>
<g>
	<defs>
		<rect id="SVGID_13_" x="-2.084" y="-1.655" width="49.605" height="70.148"/>
	</defs>
	<clipPath id="SVGID_14_">
		<use xlink:href="#SVGID_13_"  overflow="visible"/>
	</clipPath>
	<g clip-path="url(#SVGID_14_)">
		<g>
			<path fill="#1A171B" d="M19.71,6.947c-0.02,0.058-0.021,0.081-0.034,0.25c-0.013,0.175,0.004,0.251,0.012,0.274
				c0.05,0.146,0.303,0.36,0.348,0.393c0.043,0.032,0.073,0.052,0.099-0.077c0.029-0.128,0.077-0.324,0.02-0.445
				c-0.057-0.121-0.298-0.342-0.341-0.363C19.771,6.959,19.71,6.947,19.71,6.947L19.71,6.947z"/>
		</g>
	</g>
</g>
<g>
	<g>
		<path fill="#1A171B" d="M20.353,7.018c-0.019,0.056-0.022,0.081-0.036,0.25c-0.013,0.173,0.007,0.25,0.013,0.272
			c0.051,0.146,0.303,0.361,0.347,0.394c0.044,0.032,0.074,0.052,0.103-0.077c0.026-0.127,0.074-0.322,0.017-0.443
			c-0.056-0.122-0.297-0.342-0.341-0.364C20.413,7.03,20.353,7.018,20.353,7.018L20.353,7.018z"/>
	</g>
</g>
<g>
	<defs>
		<rect id="SVGID_15_" x="-2.084" y="-1.655" width="49.605" height="70.148"/>
	</defs>
	<clipPath id="SVGID_16_">
		<use xlink:href="#SVGID_15_"  overflow="visible"/>
	</clipPath>
	<g clip-path="url(#SVGID_16_)">
		<g>
			<path fill="#1A171B" d="M20.957,6.991c-0.019,0.056-0.021,0.08-0.034,0.249c-0.013,0.176,0.006,0.25,0.013,0.273
				c0.049,0.146,0.302,0.362,0.346,0.394c0.045,0.032,0.077,0.051,0.104-0.077c0.025-0.128,0.074-0.322,0.016-0.444
				c-0.057-0.122-0.297-0.343-0.339-0.363C21.018,7.003,20.957,6.991,20.957,6.991L20.957,6.991z"/>
		</g>
	</g>
</g>
<g>
	<g>
		<polygon fill="#1A171B" points="4.311,10.885 4.164,11.24 6.029,12.397 6.116,12.109 4.311,10.885 		"/>
	</g>
</g>
<g>
	<defs>
		<rect id="SVGID_17_" x="-2.084" y="-1.655" width="49.605" height="70.148"/>
	</defs>
	<clipPath id="SVGID_18_">
		<use xlink:href="#SVGID_17_"  overflow="visible"/>
	</clipPath>
	<g clip-path="url(#SVGID_18_)">
		<g>
			<path fill="#1A171B" d="M5.842,12.917l-0.19,0.39l0.369,0.013l0.863,0.368c0,0,0.085,0.001,0.128-0.104
				c0.042-0.104,0-0.203,0-0.203L5.842,12.917L5.842,12.917z"/>
		</g>
	</g>
</g>
<g>
	<g>
		<path fill="#1A171B" d="M5.461,13.656l-0.153,0.313l0.346,0.042l0.834,0.399c0,0,0.105,0.028,0.147-0.113
			c0.043-0.142,0.043-0.137-0.025-0.18c-0.127-0.079-0.722-0.426-0.865-0.434C5.603,13.673,5.461,13.656,5.461,13.656L5.461,13.656z
			"/>
	</g>
</g>
<g>
	<defs>
		<rect id="SVGID_19_" x="-2.084" y="-1.655" width="49.605" height="70.148"/>
	</defs>
	<clipPath id="SVGID_20_">
		<use xlink:href="#SVGID_19_"  overflow="visible"/>
	</clipPath>
	<g clip-path="url(#SVGID_20_)">
		<g>
			<path fill="#1A171B" d="M6.708,11.26l-0.174,0.542c0,0,0.751,0.413,0.892,0.708c0.256,0.535,0.156,1.047,0.214,1.306
				s0.095,0.487,0.408,0.803c0.12,0.122,0.606,0.387,0.606,0.387l0.079-0.471c0,0-0.343-0.191-0.494-0.417
				c-0.152-0.227-0.263-0.55-0.28-0.888C7.947,13,7.917,12.895,7.857,12.646c-0.054-0.223-0.255-0.525-0.533-0.721
				c-0.186-0.129-0.287-0.182-0.402-0.364C6.841,11.435,6.708,11.26,6.708,11.26L6.708,11.26z"/>
		</g>
	</g>
</g>
<g>
	<g>
		<path fill="#1A171B" d="M39.895,12.038c0,0-2.159,1.194-2.264,1.412c-0.104,0.219,0.106,0.83,0.056,1.1
			c-0.051,0.271-0.172,0.582-0.457,0.702c-0.288,0.119-0.56,0.226-0.636,0.236c-0.074,0.007,0.083,0.394,0.083,0.394
			s0.961-0.292,1.207-0.678c0.244-0.386,0.267-0.702,0.275-0.97c0.008-0.266-0.06-0.325-0.052-0.526s0.234-0.252,0.5-0.441
			c0.44-0.312,1.378-0.804,1.378-0.804L39.895,12.038L39.895,12.038z"/>
	</g>
</g>
<g>
	<g>
		<g>
			<path fill="#1A171B" d="M23.127,56.163c-0.092,0-0.18,0-0.271-0.002c-3.964-0.037-7.523-0.826-10.579-2.338
				c-2.611-1.293-4.862-3.115-6.688-5.418c-3.202-4.031-4.515-8.76-4.676-11.842C0.702,32.54,0.851,1.982,0.854,1.674l0.002-0.416
				h43.797l0.002,0.416C44.66,3,44.797,34.181,44.583,36.593c-0.263,2.947-1.722,7.84-4.967,11.92
				c-1.829,2.305-4.021,4.117-6.524,5.396C30.165,55.406,26.811,56.163,23.127,56.163z M1.685,2.092
				C1.667,5.78,1.549,32.777,1.745,36.517c0.147,2.822,1.412,7.488,4.494,11.369c3.867,4.869,9.461,7.373,16.625,7.443
				c0.089,0.002,0.175,0.002,0.264,0.002c6.641,0,11.97-2.467,15.834-7.334c3.131-3.941,4.538-8.646,4.79-11.48
				c0.2-2.225,0.087-30.631,0.072-34.425H1.685z"/>
		</g>
	</g>
</g>
</svg>
