<svg id="icon-play-youtube" xmlns="http://www.w3.org/2000/svg" width="56" height="56" viewBox="0 0 56 56">
    <rect id="Frame" width="56" height="56" fill="none"/>
    <g id="raw-icon" transform="translate(4.667 11.667)">
        <path id="Pfad_1130" d="M45.691,5.134A5.863,5.863,0,0,0,41.566.982C37.926,0,23.333,0,23.333,0S8.74,0,5.1.982A5.863,5.863,0,0,0,.975,5.134C0,8.8,0,16.439,0,16.439s0,7.642.975,11.305A5.864,5.864,0,0,0,5.1,31.9c3.639.981,18.232.981,18.232.981s14.593,0,18.232-.981a5.864,5.864,0,0,0,4.126-4.153c.975-3.663.975-11.305.975-11.305s0-7.642-.975-11.305" fill="red"/>
        <path id="Pfad_1220" d="M64.2,45.618l12.1-7.009L64.2,31.6Z" transform="translate(-45.541 -22.275)" fill="#fff"/>
    </g>
</svg>
