<?xml version="1.0" encoding="utf-8"?>
<!-- Generator: Adobe Illustrator 15.0.2, SVG Export Plug-In . SVG Version: 6.00 Build 0)  -->
<!DOCTYPE svg PUBLIC "-//W3C//DTD SVG 1.1//EN" "http://www.w3.org/Graphics/SVG/1.1/DTD/svg11.dtd">
<svg version="1.1" id="Ebene_1" xmlns="http://www.w3.org/2000/svg" xmlns:xlink="http://www.w3.org/1999/xlink" x="0px" y="0px"
	 width="672.5px" height="315px" viewBox="0 0 672.5 315" enable-background="new 0 0 672.5 315" xml:space="preserve">
<path id="Pfad_556" fill="#F2F2F2" d="M148.667,0h147.875v228.753l-147.875,86.348L0,228.753V0H148.667z"/>
<g>
	<defs>
		<polygon id="SVGID_1_" points="268.684,216.758 231.013,195.121 154.32,239.398 154.32,282.781 		"/>
	</defs>
	<clipPath id="SVGID_2_">
		<use xlink:href="#SVGID_1_"  overflow="visible"/>
	</clipPath>
	
		<linearGradient id="SVGID_3_" gradientUnits="userSpaceOnUse" x1="-105.2422" y1="445.0332" x2="-104.2422" y2="445.0332" gradientTransform="matrix(114.3623 0 0 -114.3623 12190.0664 51133.8711)">
		<stop  offset="0" style="stop-color:#0098BF"/>
		<stop  offset="0.9997" style="stop-color:#00A4BF"/>
		<stop  offset="1" style="stop-color:#00A4BF"/>
	</linearGradient>
	<rect x="154.32" y="195.121" clip-path="url(#SVGID_2_)" fill="url(#SVGID_3_)" width="114.364" height="87.66"/>
</g>
<g>
	<defs>
		<polygon id="SVGID_4_" points="25.448,208.395 63.024,186.746 63.024,97.977 25.448,76.316 		"/>
	</defs>
	<clipPath id="SVGID_5_">
		<use xlink:href="#SVGID_4_"  overflow="visible"/>
	</clipPath>
	
		<linearGradient id="SVGID_6_" gradientUnits="userSpaceOnUse" x1="-104.7153" y1="445.0996" x2="-103.7153" y2="445.0996" gradientTransform="matrix(37.577 0 0 -37.577 3960.3193 16867.8711)">
		<stop  offset="0" style="stop-color:#007FBA"/>
		<stop  offset="1" style="stop-color:#008CBD"/>
	</linearGradient>
	<rect x="25.448" y="76.316" clip-path="url(#SVGID_5_)" fill="url(#SVGID_6_)" width="37.576" height="132.078"/>
</g>
<polygon fill="#0063AE" points="235.962,97.848 235.962,186.773 273.539,208.393 273.539,76.316 235.969,97.978 "/>
<g>
	<defs>
		<polygon id="SVGID_7_" points="67.983,195.102 30.292,216.734 144.654,282.762 144.654,239.369 		"/>
	</defs>
	<clipPath id="SVGID_8_">
		<use xlink:href="#SVGID_7_"  overflow="visible"/>
	</clipPath>
	
		<linearGradient id="SVGID_9_" gradientUnits="userSpaceOnUse" x1="-105.3208" y1="445.0654" x2="-104.3208" y2="445.0654" gradientTransform="matrix(114.3624 66.0272 66.0272 -114.3624 -17306.6758 58061.3164)">
		<stop  offset="0" style="stop-color:#008CBD"/>
		<stop  offset="1" style="stop-color:#0098BF"/>
	</linearGradient>
	<polygon clip-path="url(#SVGID_8_)" fill="url(#SVGID_9_)" points="58.882,145.582 182.612,217.018 116.063,332.281 
		-7.666,260.848 	"/>
</g>
<rect x="112.63" y="113.615" fill="#1D1D1B" width="16.411" height="59.246"/>
<polygon fill="#1D1D1B" points="155.462,125.104 137.327,125.104 137.327,113.615 190.417,113.615 190.417,125.104 171.875,125.104 
	171.875,172.861 155.462,172.861 "/>
<g>
	<defs>
		<polygon id="SVGID_10_" points="30.285,67.932 67.958,89.566 144.647,45.293 144.647,1.906 		"/>
	</defs>
	<clipPath id="SVGID_11_">
		<use xlink:href="#SVGID_10_"  overflow="visible"/>
	</clipPath>
	
		<linearGradient id="SVGID_12_" gradientUnits="userSpaceOnUse" x1="-105.2925" y1="444.9844" x2="-104.2925" y2="444.9844" gradientTransform="matrix(114.3619 -66.0269 -66.0269 -114.3619 41457.332 44013.1641)">
		<stop  offset="0" style="stop-color:#007FBA"/>
		<stop  offset="1" style="stop-color:#0072B5"/>
	</linearGradient>
	<polygon clip-path="url(#SVGID_11_)" fill="url(#SVGID_12_)" points="-7.673,23.82 116.057,-47.614 182.605,67.65 58.875,139.086 	
		"/>
</g>
<g>
	<defs>
		<polygon id="SVGID_13_" points="154.315,1.906 154.315,45.291 154.306,45.285 230.997,89.566 268.668,67.934 		"/>
	</defs>
	<clipPath id="SVGID_14_">
		<use xlink:href="#SVGID_13_"  overflow="visible"/>
	</clipPath>
	
		<linearGradient id="SVGID_15_" gradientUnits="userSpaceOnUse" x1="-105.3213" y1="445.208" x2="-104.3213" y2="445.208" gradientTransform="matrix(114.3554 66.0231 66.0231 -114.3554 -17200.3535 57875.4922)">
		<stop  offset="0" style="stop-color:#0072B5"/>
		<stop  offset="0.9997" style="stop-color:#0063AE"/>
		<stop  offset="1" style="stop-color:#0063AE"/>
	</linearGradient>
	<polygon clip-path="url(#SVGID_14_)" fill="url(#SVGID_15_)" points="182.896,-47.614 306.626,23.82 240.078,139.086 
		116.348,67.65 	"/>
</g>
<path fill="#1D1D1B" d="M372.964,107.836h3.915v20.688h-3.833v-3.049h-0.082c-1.566,2.596-4.204,3.668-7.089,3.668
	c-4.327,0-6.8-3.297-6.8-7.459v-13.848h3.915v12.24c0,3.586,0.824,6.223,4.574,6.223c1.608,0,3.792-0.824,4.616-2.968
	c0.741-1.937,0.783-4.368,0.783-4.862V107.836z M362.166,98.77h3.75v4.202h-3.75V98.77z M369.913,98.77h3.751v4.202h-3.751V98.77z"
	/>
<path fill="#1D1D1B" d="M388.092,110.885h0.083c1.319-2.596,4.204-3.666,6.265-3.666c1.441,0,7.83,0.37,7.83,7.006v14.299h-3.916
	v-13.022c0-3.421-1.441-5.274-4.74-5.274c0,0-2.142-0.125-3.791,1.524c-0.576,0.577-1.647,1.483-1.647,5.522v11.25h-3.915v-20.688
	h3.832V110.885z"/>
<path fill="#1D1D1B" d="M420.9,114.471c-0.206-2.596-1.441-4.41-4.244-4.41c-3.751,0-5.193,3.256-5.193,8.119
	s1.442,8.119,5.193,8.119c2.597,0,4.203-1.689,4.409-4.656h3.916c-0.33,4.656-3.792,7.5-8.366,7.5
	c-6.636,0-9.273-4.699-9.273-10.797c0-6.06,3.05-11.128,9.603-11.128c4.368,0,7.666,2.761,7.872,7.253H420.9z"/>
<path fill="#1D1D1B" d="M430.055,128.523V98.77h3.914v11.828h0.083c1.483-2.309,3.709-3.381,6.718-3.381
	c5.397,0,7.088,3.586,7.088,7.295v14.012h-3.915v-12.239c0-3.627-0.948-5.976-4.616-6.058c-1.565-0.041-3.955,1.154-4.697,2.885
	c-0.907,2.143-0.66,3.626-0.66,4.779v10.633H430.055z"/>
<path fill="#1D1D1B" d="M457.753,118.922c-0.289,3.627,1.194,7.377,5.192,7.377c3.05,0,4.574-1.195,5.027-4.203h4.121
	c-0.618,4.697-4.244,7.047-9.189,7.047c-6.636,0-9.273-4.698-9.273-10.797c0-6.059,3.05-11.129,9.603-11.129
	c6.182,0.125,9.107,4.039,9.107,9.769v1.937H457.753z M468.221,116.201c0.082-3.461-1.484-6.14-5.275-6.14
	c-3.256,0-5.192,2.761-5.192,6.14H468.221z"/>
<path fill="#1D1D1B" d="M481.988,110.885h0.083c1.319-2.596,4.204-3.666,6.265-3.666c1.441,0,7.83,0.37,7.83,7.006v14.299h-3.916
	v-13.022c0-3.421-1.441-5.274-4.74-5.274c0,0-2.142-0.125-3.791,1.524c-0.575,0.577-1.647,1.483-1.647,5.522v11.25h-3.915v-20.688
	h3.832V110.885z"/>
<rect x="502.97" y="123.579" fill="#1D1D1B" width="4.78" height="4.944"/>
<path fill="#1D1D1B" d="M332.385,148.232c10.22,0,16.938,3.875,16.938,14.877c0,11.004-6.719,14.879-16.938,14.879h-12.57v-29.756
	H332.385z M328.058,172.219h3.873c4.491,0,8.737-2.969,8.737-9.109s-4.246-9.107-8.737-9.107h-3.873V172.219z"/>
<path fill="#1D1D1B" d="M354.315,148.232h7.911v5.521h-7.911V148.232z M354.357,157.299h7.828v20.688h-7.828V157.299z"/>
<path fill="#1D1D1B" d="M390.46,175.104c-0.124,3.543-0.453,5.852-2.886,8.16c-2.102,2.018-6.387,2.885-8.983,2.885
	c-4.574,0-10.633-1.115-10.633-7.09h7.295c0.041,1.031,0.453,1.607,1.03,2.02c0.618,0.371,1.442,0.535,2.267,0.535
	c3.462,0,4.079-2.225,4.079-5.273v-2.352h-0.082c-1.277,2.309-4.079,3.299-6.717,3.299c-5.936,0-9.067-4.781-9.067-10.303
	c0-6.018,3.503-10.303,9.479-10.303c2.885,0,5.11,1.195,6.305,3.625h0.082l0.207-3.008h7.624V175.104z M378.715,161.215
	c-3.215,0-3.916,3.215-3.916,5.77s0.701,5.77,3.916,5.77s3.914-3.215,3.914-5.77S381.93,161.215,378.715,161.215"/>
<path fill="#1D1D1B" d="M395.534,148.232h7.912v5.521h-7.912V148.232z M395.575,157.299h7.83v20.688h-7.83V157.299z"/>
<path fill="#1D1D1B" d="M410.908,157.299v-3.133l7.83-2.967v6.1h4.534v4.945h-4.534v8.201c0,0.537-0.33,3.215,1.484,3.215
	c1.029,0,2.102,0,3.009-0.125v4.658c-1.773,0.33-3.05,0.412-4.205,0.412c-5.316,0-8.531-0.742-8.118-7.088v-9.273h-4.039v-4.945
	H410.908z"/>
<path fill="#1D1D1B" d="M440.171,177.988c-0.165-0.66-0.165-1.32-0.165-2.803h-0.083c-0.946,1.482-2.72,3.42-6.593,3.42
	c-4.904,0-7.459-2.637-7.378-6.883c0.082-5.027,4.699-7.088,11.457-7.088h2.473c0-1.814,0.412-4.451-2.72-4.328
	c-1.896,0.082-2.514,1.938-2.473,3.174h-7.377c-0.041-2.926,1.483-4.615,3.586-5.563c2.143-0.99,4.821-1.238,7.128-1.238
	c4.205,0,9.273,1.773,9.191,6.43v10.633c0,0.867,0.165,1.771,0.453,4.246H440.171z M436.215,174.072
	c3.379,0,3.667-3.174,3.667-5.936c-1.647,0-3.215-0.082-4.285,0.455c-1.154,0.576-2.061,1.318-2.061,2.762
	C433.536,172.836,434.73,174.072,436.215,174.072"/>
<rect x="452.785" y="148.232" fill="#1D1D1B" width="7.831" height="29.756"/>
<rect x="466.718" y="171.807" fill="#1D1D1B" width="7.418" height="6.182"/>
<polygon fill="#1D1D1B" points="493.84,177.988 493.84,148.232 516.506,148.232 516.506,154.002 502.082,154.002 502.082,160.143 
	515.353,160.143 515.353,165.912 502.082,165.912 502.082,172.217 516.506,172.217 516.506,177.988 "/>
<path fill="#1D1D1B" d="M529.039,161.174h0.083c0.907-3.422,3.462-4.576,6.923-4.492v6.635c-0.576-0.041-1.111-0.041-1.647-0.041
	c-4.08,0.041-5.481,2.471-5.358,6.428v8.283h-7.83v-15.371c0-1.854-0.041-3.09-0.247-5.316h7.954L529.039,161.174z"/>
<rect x="539.757" y="148.232" fill="#1D1D1B" width="7.83" height="29.756"/>
<path fill="#1D1D1B" d="M559.294,169.209c-0.041,2.68,0.658,4.986,3.585,4.986c2.184,0,3.544-1.029,3.833-2.967h7.253
	c-0.247,2.678-1.937,4.617-3.914,5.77c-1.814,1.154-4.122,1.607-6.554,1.607c-8.284,0-11.581-3.545-11.581-11.662
	c0-6.553,4.905-10.262,11.128-10.262c8.407,0,11.086,4.822,11.086,12.527H559.294z M566.712,165.006c0-1.113-0.33-2.227-0.948-3.092
	s-1.524-1.4-2.72-1.318c-2.721,0.123-3.379,2.061-3.585,4.41H566.712z"/>
<path fill="#1D1D1B" d="M578.049,148.232h7.83v11.25h0.083c1.442-1.855,3.956-2.801,6.306-2.801c6.346,0,9.189,4.779,9.189,10.633
	c0,6.305-2.803,11.291-9.644,11.291c-2.39,0-5.233-1.566-5.77-3.668h-0.165l-0.206,3.051h-7.624V148.232z M585.879,167.932
	c0,2.309,0.701,6.141,3.545,6.141c3.421,0,3.997-3.832,3.997-6.512c0-2.555-0.371-6.346-3.709-6.346
	C586.168,161.215,585.879,165.17,585.879,167.932"/>
<path fill="#1D1D1B" d="M611.972,169.209c-0.042,2.68,0.658,4.986,3.585,4.986c2.184,0,3.544-1.029,3.833-2.967h7.253
	c-0.247,2.678-1.938,4.617-3.915,5.77c-1.813,1.154-4.122,1.607-6.553,1.607c-8.284,0-11.581-3.545-11.581-11.662
	c0-6.553,4.904-10.262,11.127-10.262c8.408,0,11.087,4.822,11.087,12.527H611.972z M619.39,165.006c0-1.113-0.33-2.227-0.948-3.092
	c-0.619-0.865-1.524-1.4-2.721-1.318c-2.72,0.123-3.378,2.061-3.584,4.41H619.39z"/>
<path fill="#1D1D1B" d="M638.928,159.566c1.771-2.063,3.833-2.885,6.471-2.885c4.45,0,7.748,2.885,7.748,7.459v13.848h-7.831V165.83
	c-0.082-2.02-0.577-4.203-3.008-4.203c-3.875,0-3.38,4.244-3.38,4.492v11.869h-7.831v-15.373c0-1.855-0.041-3.09-0.247-5.316h7.954
	L638.928,159.566z"/>
<rect x="659.044" y="171.807" fill="#1D1D1B" width="7.418" height="6.182"/>
<polygon fill="#1D1D1B" points="347.447,101.736 347.364,101.736 337.846,128.523 333.971,128.523 324.451,101.736 324.368,101.736 
	324.368,128.523 320.247,128.523 320.247,98.77 327.624,98.77 336.196,123.29 336.278,123.29 344.688,98.77 351.568,98.77 
	351.568,128.523 347.447,128.523 "/>
</svg>
