<?xml version="1.0" encoding="utf-8"?>
<!-- Generator: Adobe Illustrator 15.0.2, SVG Export Plug-In . SVG Version: 6.00 Build 0)  -->
<!DOCTYPE svg PUBLIC "-//W3C//DTD SVG 1.1//EN" "http://www.w3.org/Graphics/SVG/1.1/DTD/svg11.dtd">
<svg version="1.1" id="Ebene_1" xmlns="http://www.w3.org/2000/svg" xmlns:xlink="http://www.w3.org/1999/xlink" x="0px" y="0px"
	 width="299.5px" height="315px" viewBox="0 0 299.5 315" enable-background="new 0 0 299.5 315" xml:space="preserve">
<path id="Pfad_556" fill="#F2F2F2" d="M148.667,0H300.5v228.753l-151.833,86.348L0,228.753V0H148.667z"/>
<g>
	<defs>
		<polygon id="SVGID_1_" points="268.684,216.758 231.013,195.121 154.32,239.398 154.32,282.781 		"/>
	</defs>
	<clipPath id="SVGID_2_">
		<use xlink:href="#SVGID_1_"  overflow="visible"/>
	</clipPath>
	
		<linearGradient id="SVGID_3_" gradientUnits="userSpaceOnUse" x1="-105.2422" y1="445.0332" x2="-104.2422" y2="445.0332" gradientTransform="matrix(114.3623 0 0 -114.3623 12190.0664 51133.8711)">
		<stop  offset="0" style="stop-color:#0098BF"/>
		<stop  offset="0.9997" style="stop-color:#00A4BF"/>
		<stop  offset="1" style="stop-color:#00A4BF"/>
	</linearGradient>
	<rect x="154.32" y="195.121" clip-path="url(#SVGID_2_)" fill="url(#SVGID_3_)" width="114.364" height="87.66"/>
</g>
<g>
	<defs>
		<polygon id="SVGID_4_" points="25.448,208.395 63.024,186.746 63.024,97.977 25.448,76.316 		"/>
	</defs>
	<clipPath id="SVGID_5_">
		<use xlink:href="#SVGID_4_"  overflow="visible"/>
	</clipPath>
	
		<linearGradient id="SVGID_6_" gradientUnits="userSpaceOnUse" x1="-104.7153" y1="445.0996" x2="-103.7153" y2="445.0996" gradientTransform="matrix(37.577 0 0 -37.577 3960.3193 16867.8711)">
		<stop  offset="0" style="stop-color:#007FBA"/>
		<stop  offset="1" style="stop-color:#008CBD"/>
	</linearGradient>
	<rect x="25.448" y="76.316" clip-path="url(#SVGID_5_)" fill="url(#SVGID_6_)" width="37.576" height="132.078"/>
</g>
<polygon fill="#0063AE" points="235.962,97.848 235.962,186.773 273.539,208.393 273.539,76.316 235.969,97.978 "/>
<g>
	<defs>
		<polygon id="SVGID_7_" points="67.983,195.102 30.292,216.734 144.654,282.762 144.654,239.369 		"/>
	</defs>
	<clipPath id="SVGID_8_">
		<use xlink:href="#SVGID_7_"  overflow="visible"/>
	</clipPath>
	
		<linearGradient id="SVGID_9_" gradientUnits="userSpaceOnUse" x1="-105.3208" y1="445.0654" x2="-104.3208" y2="445.0654" gradientTransform="matrix(114.3624 66.0272 66.0272 -114.3624 -17306.6758 58061.3164)">
		<stop  offset="0" style="stop-color:#008CBD"/>
		<stop  offset="1" style="stop-color:#0098BF"/>
	</linearGradient>
	<polygon clip-path="url(#SVGID_8_)" fill="url(#SVGID_9_)" points="58.882,145.582 182.612,217.018 116.063,332.281 
		-7.666,260.848 	"/>
</g>
<rect x="112.63" y="113.615" fill="#1D1D1B" width="16.411" height="59.246"/>
<polygon fill="#1D1D1B" points="155.462,125.104 137.327,125.104 137.327,113.615 190.417,113.615 190.417,125.104 171.875,125.104 
	171.875,172.861 155.462,172.861 "/>
<g>
	<defs>
		<polygon id="SVGID_10_" points="30.285,67.932 67.958,89.566 144.647,45.293 144.647,1.906 		"/>
	</defs>
	<clipPath id="SVGID_11_">
		<use xlink:href="#SVGID_10_"  overflow="visible"/>
	</clipPath>
	
		<linearGradient id="SVGID_12_" gradientUnits="userSpaceOnUse" x1="-105.2925" y1="444.9844" x2="-104.2925" y2="444.9844" gradientTransform="matrix(114.3619 -66.0269 -66.0269 -114.3619 41457.332 44013.1641)">
		<stop  offset="0" style="stop-color:#007FBA"/>
		<stop  offset="1" style="stop-color:#0072B5"/>
	</linearGradient>
	<polygon clip-path="url(#SVGID_11_)" fill="url(#SVGID_12_)" points="-7.673,23.82 116.057,-47.614 182.605,67.65 58.875,139.086 	
		"/>
</g>
<g>
	<defs>
		<polygon id="SVGID_13_" points="154.315,1.906 154.315,45.291 154.306,45.285 230.997,89.566 268.668,67.934 		"/>
	</defs>
	<clipPath id="SVGID_14_">
		<use xlink:href="#SVGID_13_"  overflow="visible"/>
	</clipPath>
	
		<linearGradient id="SVGID_15_" gradientUnits="userSpaceOnUse" x1="-105.3213" y1="445.208" x2="-104.3213" y2="445.208" gradientTransform="matrix(114.3554 66.0231 66.0231 -114.3554 -17200.3535 57875.4922)">
		<stop  offset="0" style="stop-color:#0072B5"/>
		<stop  offset="0.9997" style="stop-color:#0063AE"/>
		<stop  offset="1" style="stop-color:#0063AE"/>
	</linearGradient>
	<polygon clip-path="url(#SVGID_14_)" fill="url(#SVGID_15_)" points="182.896,-47.614 306.626,23.82 240.078,139.086 
		116.348,67.65 	"/>
</g>
</svg>
